<?xml version="1.0" encoding="utf-8"?>
<!-- Generator: Adobe Illustrator 26.0.3, SVG Export Plug-In . SVG Version: 6.00 Build 0)  -->
<svg version="1.1" id="Calque_1" xmlns="http://www.w3.org/2000/svg" xmlns:xlink="http://www.w3.org/1999/xlink" x="0px" y="0px"
	 viewBox="0 0 1143 605" style="enable-background:new 0 0 1143 605;" xml:space="preserve">
<style type="text/css">
	.st0{opacity:0.8;}
	.st1{clip-path:url(#SVGID_00000169522906489263989050000016529481168604988588_);fill:#FFFFFF;}
</style>
<g>
	<g>
		<g class="st0">
			<g>
				<defs>
					<rect id="SVGID_1_" width="1143" height="605"/>
				</defs>
				<clipPath id="SVGID_00000160154819278028101930000014508650654279482293_">
					<use xlink:href="#SVGID_1_"  style="overflow:visible;"/>
				</clipPath>
				<path style="clip-path:url(#SVGID_00000160154819278028101930000014508650654279482293_);fill:#FFFFFF;" d="M462.18,304.33
					h18.26c0-0.43,0.04-0.73-0.01-1.02c-2.05-13.39-4.08-26.79-6.16-40.18c-0.61-3.95-1.34-7.88-2.09-11.8
					c-0.09-0.45-0.58-0.83-0.89-1.25c-0.27,0.39-0.6,0.75-0.8,1.17c-0.15,0.32-0.13,0.73-0.19,1.09
					c-2.08,13.16-4.17,26.32-6.24,39.48C463.42,295.96,462.82,300.1,462.18,304.33 M815.71,216.69l-61.77-0.05
					c-1.47-12.66-3.15-25.59-4.74-39.3c-0.88,1-2.05,1.7-2.15,2.53c-0.79,6.84-1.51,13.69-2.25,20.53
					c-0.49,4.55-0.97,9.09-1.52,13.63c-0.05,0.47-0.14,1.3-0.29,2.66c0,0-1.83-0.01-2.3,0c-19.29,0.13-38.58,0.03-57.88,0h-1.64
					c0.66-3.2,2.63-12.38,3.94-18.3c2.71-12.28,5.7-24.51,8.03-36.86c0.6-3.21-0.57-6.84-1.3-10.2c-3.2-14.85-6.53-29.67-9.8-44.51
					c-0.18-0.81-0.37-1.79-0.6-2.97h61.79c0.79,7.04,1.69,14.24,2.38,21.27c0.48,4.84,0.64,9.7,1.14,14.53
					c0.1,0.95,1.11,1.8,1.7,2.69c0.54-0.92,1.48-1.8,1.57-2.77c1.13-11.03,2.07-22.09,3.27-33.11c0.05-0.45,0.34-2.62,0.41-2.62
					c0.36,0,1.75,0,2.24-0.01l59.38,0.01c-1.53,7.1-3.14,14.7-4.68,21.72c-2.27,10.34-5.04,20.6-6.67,31.04
					c-0.69,4.45-0.16,4.94,0.81,9.51c3.12,14.74,6.99,33.89,10.55,48.53C815.46,215.18,815.58,215.82,815.71,216.69 M676.01,189.28
					c-0.02,3.59-0.59,7.32-1.62,10.76c-2.43,8.09-8.31,12.91-16.32,15.06c-7.34,1.98-14.77,1.91-22.14,0.02
					c-10.68-2.74-17.58-11.54-17.66-23c-0.15-19.81-0.07-39.63-0.08-59.45v-10.27l19.79-18.8h0.09v2.89
					c0,27.26-0.01,52.86,0.03,80.12c0,1.99,0.18,4.03,0.64,5.96c1.09,4.51,4.44,6.73,9.16,6.36c4.5-0.35,7.43-3.13,7.91-7.64
					c0.18-1.62,0.18-3.27,0.18-4.91c0.01-21.85,0.01-42.04,0.01-63.89l20.01-18.89c0,0.9,0,1.34,0,1.98
					C676.01,134.03,676.13,160.83,676.01,189.28 M617.23,310.89c0.09,0.84,0.69,1.65,1.05,2.47c0.52-0.84,1.41-1.63,1.5-2.51
					c1.24-13.35,2.42-26.73,3.52-40.09c1-12.16,1.88-24.31,2.82-36.48c0.04-0.53,0.2-1.06,0.35-1.8h36.72
					c-5.67,37.48-11.32,74.78-17,112.27c-1.13,0.05-2.12,0.15-3.11,0.15c-16.86,0.01-33.71-0.05-50.57,0.06
					c-2.58,0.02-3.34-0.73-3.71-3.3c-2.4-16.59-5.04-33.15-7.59-49.71c-3.04-19.76-6.05-39.52-9.12-59.52h37.22
					c0.6,5.94,1.2,11.81,1.79,17.7C613.15,270.39,615.16,290.64,617.23,310.89 M509.15,167.34v32.27H612.4
					c-4.37,7.31-3.61,6.25-9.66,17.11H489.23V103.85h122.78c-3.83,7.22-3.99,7.22-9.66,17.09h-93.25v29.59h100.53
					c-3.89,7.4-4.5,8.16-9.66,16.8H509.15z M486.3,232.07c5.99,31.87,11.83,63.56,17.81,95.53l-17.47,17.13
					c-0.23-0.67-0.29-2.02-0.64-3.96c-0.86-6.31-1.82-12.6-2.78-19.15c-0.77-0.05-1.47-0.12-2.18-0.12
					c-6.47-0.05-12.94-0.02-19.41-0.15c-1.66-0.03-2.27,0.41-2.5,2.14c-0.94,7.05-2.09,14.06-3.18,21.26h-20.47
					c7.17-37.55,14.34-75.05,21.52-112.68H486.3z M475.95,216.69h-19.97v-94.06l19.97-18.9V216.69z M439.3,216.69H304.6v-4.01
					c0-34.87,0.04-69.73-0.08-104.59c-0.01-3.37,0.88-4.37,4.3-4.3c11.05,0.21,61.85,0.23,72.9-0.01c3.55-0.08,4.29,1.14,4.27,4.39
					c-0.12,24.09-0.06,31.15-0.06,55.24v4.8h53.38V216.69z M304.52,341.4c0.1-35.28,0.08-70.56,0.02-105.84
					c-0.01-2.56,0.85-3.35,3.38-3.34c30.66,0.06,87.15,0.06,117.8,0.01c2.4-0.01,3.54,0.51,3.49,3.22c-0.15,8.51-0.15,17.03,0,25.55
					c0.05,2.71-1.08,3.21-3.48,3.2c-16.61-0.08-59.05-0.04-75.67-0.04h-3.88v10.93h79.4v30.01h-79.47v39.29
					c-1.4,0.12-2.45,0.3-3.49,0.3c-11.48,0.02-22.97-0.05-34.45,0.06C305.64,344.77,304.52,344.31,304.52,341.4 M508.21,262.45
					c0-3.98,0-7.95,0-11.93l19.79-18.8h0.09v2.89c0,27.26-0.01,54.53,0.03,81.79c0,1.99,0.18,4.04,0.64,5.97
					c1.09,4.5,4.44,6.72,9.16,6.36c4.5-0.35,7.43-3.14,7.91-7.65c0.17-1.62,0.18-3.27,0.18-4.91c0.01-21.86,0.01-43.71,0.01-65.57
					l19.89-18.89c0.05,0.72,0.13,1.35,0.13,1.98c0.01,28.45,0.06,56.91-0.06,85.37c-0.02,3.59-0.53,7.32-1.56,10.76
					c-2.43,8.1-8.3,12.91-16.32,15.06c-7.34,1.98-14.77,1.91-22.14,0.02c-10.68-2.74-17.58-11.54-17.66-23
					C508.14,302.08,508.22,282.27,508.21,262.45 M669.22,236.74c-0.01-3.45,0.84-4.57,4.45-4.55c30.06,0.15,36.89,0.15,66.96,0.03
					c3.37-0.02,4.42,0.9,4.31,4.3c-0.24,8.05-0.21,16.11-0.02,24.16c0.08,3.01-0.98,3.7-3.8,3.67c-16.37-0.12-14.04-0.07-30.42-0.08
					h-4.19c0,3.2,0,6.06,0,9.31c17.69,0.01,16.65,0.02,34.66,0.02c0,10.16-0.01,19.96-0.01,30.14c-17.63,0-16.59-0.02-34.57-0.02
					c0,3.34,0,6.29,0,9.71c1.26,0.01,2.56,0.01,3.86,0.01c16.38,0,14.05,0.11,30.42-0.06c3.32-0.04,4.11,0.98,4.03,4.13
					c-0.21,9.01-0.08,18.01-0.08,27.37c-33.17-0.01-42.52-0.02-75.57-0.03c0-1.52,0-2.83,0-4.13
					C669.27,306.07,669.33,271.41,669.22,236.74 M752.34,254.72c0.81-11.43,7.33-18.8,18.46-21.78c9.89-2.64,19.86-2.6,29.49,1.23
					c8.49,3.39,13.13,9.81,13.35,19.05c0.15,6.01,0.03,12.02,0.03,18.22h-28.66c0-2.58,0-5.18,0-7.78
					c-0.01-2.62,0.09-5.27-0.09-7.88c-0.05-0.78-0.87-1.51-1.34-2.26c-0.54,0.76-1.09,1.5-1.6,2.27c-0.11,0.16-0.02,0.45-0.02,0.67
					c0,4.51-0.02,9.01,0.01,13.52c0.02,2.96,0.97,4.05,3.84,4.6c4.2,0.82,8.42,1.6,12.61,2.48c10.39,2.17,16,8.06,16.72,19.2
					c0.59,9.11,0.49,18.34-0.25,27.45c-0.93,11.48-7.6,18.89-18.78,21.78c-10.13,2.62-20.29,2.38-30.18-1.3
					c-7.73-2.88-12.2-8.67-12.73-16.77c-0.52-7.84-0.11-15.74-0.11-23.84h28.82c0.04,0.78,0.11,1.51,0.12,2.23
					c0.01,4.96,0,9.91,0.01,14.88c0,0.67-0.16,1.45,0.12,2c0.35,0.7,1.08,1.21,1.65,1.8c0.47-0.66,0.99-1.29,1.38-1.99
					c0.16-0.29,0.04-0.73,0.04-1.11c0-5.19,0.01-10.37,0-15.55c-0.01-3.63-1.19-4.88-4.85-5.46c-3.64-0.59-7.28-1.16-10.88-1.97
					c-10.2-2.28-15.88-8.06-16.82-18.49C751.91,271.56,751.75,263.07,752.34,254.72"/>
			</g>
		</g>
	</g>
</g>
</svg>
